<?xml version="1.0" standalone="no"?><!DOCTYPE svg PUBLIC "-//W3C//DTD SVG 1.1//EN" "http://www.w3.org/Graphics/SVG/1.1/DTD/svg11.dtd"><svg t="1603247903186" class="icon" viewBox="0 0 1024 1024" version="1.1" xmlns="http://www.w3.org/2000/svg" p-id="3754" xmlns:xlink="http://www.w3.org/1999/xlink" width="200" height="200"><defs><style type="text/css"></style></defs><path d="M512 0C226.743 0 0 226.743 0 512s226.743 512 512 512 512-226.743 512-512S797.257 0 512 0z m-73.143 972.8C219.43 936.229 51.2 738.743 51.2 512c0-29.257 0-65.829 7.314-95.086 21.943 21.943 51.2 21.943 65.829 0-7.314-7.314-7.314-7.314 0-7.314 21.943 7.314 51.2 7.314 51.2 36.571 0 80.458 7.314 168.229 80.457 168.229 29.257 7.314 51.2 36.571 58.514 65.829 7.315 21.942 36.572 0 58.515 0 14.628 0 0 21.942 0 73.142S482.743 885.03 482.743 885.03c0 29.257 0 51.2 7.314 80.457-14.628 0-36.571 0-51.2 7.314z m182.857-14.629c-7.314-7.314-14.628-7.314-29.257-7.314 14.629-65.828 21.943-102.4 51.2-131.657 21.943-14.629 29.257-36.571 14.629-58.514-7.315-14.629-29.257-21.943-43.886-21.943-21.943 14.628-7.314-29.257-29.257-29.257-21.943-7.315-58.514-58.515-95.086-73.143-14.628-7.314-36.571-29.257-65.828-29.257-21.943 0-65.829 21.943-65.829 7.314 0-58.514-7.314-95.086-7.314-117.029 0-14.628-7.315-7.314 29.257-7.314 21.943 0 7.314-36.571 29.257-36.571s65.829 21.943 73.143 7.314c7.314-7.314 80.457 175.543 80.457 29.257 0-21.943-7.314-51.2 0-65.828 21.943-36.572 51.2-80.458 65.829-124.343-14.629-7.315-36.572-7.315-58.515 0-7.314 0 7.315 14.628-7.314 14.628-51.2 14.629-95.086-14.628-80.457-36.571 14.628-21.943 73.143-7.314 80.457-58.514 7.314-29.258 7.314-58.515 7.314-80.458 58.515 7.315 58.515-58.514 0-87.771C760.686 73.143 921.6 219.429 965.486 409.6c-7.315-14.629-21.943-58.514-21.943-58.514-29.257-80.457-102.4-21.943-80.457 43.885-138.972 102.4-95.086 175.543-51.2 212.115 21.943 21.943 43.885 51.2 58.514 80.457-14.629 36.571 43.886 29.257 80.457-29.257v-7.315c-43.886 153.6-175.543 270.629-329.143 307.2z" fill="#989898" p-id="3755"></path></svg>